name rise44.8762peak52.3436fall86.788.mot
datacolumns 19
datarows 35
range 5.57997700000000 5.63664000000000
endheader
time	ground_force1_vx	ground_force1_vy	ground_force1_vz	ground_force1_px	ground_force1_py	ground_force1_pz	ground_force2_vx	ground_force2_vy	ground_force2_vz	ground_force2_px	ground_force2_py	ground_force2_pz	ground_torque1_x	ground_torque1_y	ground_torque1_z	ground_torque2_x	ground_torque2_y	ground_torque2_z	
5.57997700000000	-9.52149000000000	40.24624200000000	-8.54928100000000	0.24786400000000	0.00000000000000	0.12949800000000	-49.89075400000000	802.42687200000000	-59.46469400000000	0.06519800000000	0.00000000000000	-0.06016400000000	0.00000000000000	-3.10299600000000	0.00000000000000	0.00000000000000	-11.87934900000000	0.00000000000000	
5.58164800000000	-10.53847600000000	47.33496700000000	-9.68025200000000	0.25224300000000	0.00000000000000	0.13028900000000	-51.13633200000000	801.48125500000003	-59.33567900000000	0.06411900000000	0.00000000000000	-0.06012400000000	0.00000000000000	-3.60881500000000	0.00000000000000	0.00000000000000	-11.88408600000000	0.00000000000000	
5.58331100000000	-11.39999300000000	54.55775100000000	-10.73018400000000	0.25615600000000	0.00000000000000	0.13100600000000	-52.39134700000000	800.35394199999996	-59.17276800000000	0.06304700000000	0.00000000000000	-0.06008000000000	0.00000000000000	-4.10602000000000	0.00000000000000	0.00000000000000	-11.88937200000000	0.00000000000000	
5.58498100000000	-12.07975800000000	61.82583200000000	-11.67580800000000	0.25968100000000	0.00000000000000	0.13166100000000	-53.65393800000000	799.03824199999997	-58.97540000000000	0.06198500000000	0.00000000000000	-0.06003400000000	0.00000000000000	-4.58518200000000	0.00000000000000	0.00000000000000	-11.89507000000000	0.00000000000000	
5.58664200000000	-12.56123800000000	69.07133800000000	-12.50087300000000	0.26287900000000	0.00000000000000	0.13226400000000	-54.92212700000000	797.52752699999996	-58.74308300000000	0.06093200000000	0.00000000000000	-0.05998400000000	0.00000000000000	-5.03903200000000	0.00000000000000	0.00000000000000	-11.90103100000000	0.00000000000000	
5.58831200000000	-12.83760800000000	76.24953200000000	-13.19633600000000	0.26580100000000	0.00000000000000	0.13282300000000	-56.19381900000000	795.81524999999999	-58.47539800000000	0.05988800000000	0.00000000000000	-0.05993000000000	0.00000000000000	-5.46266000000000	0.00000000000000	0.00000000000000	-11.90709400000000	0.00000000000000	
5.58997500000000	-12.91092800000000	83.33878100000000	-13.75993800000000	0.26848400000000	0.00000000000000	0.13334400000000	-57.46680400000000	793.89496499999996	-58.17199800000000	0.05885300000000	0.00000000000000	-0.05987400000000	0.00000000000000	-5.85348900000000	0.00000000000000	0.00000000000000	-11.91308300000000	0.00000000000000	
5.59164800000000	-12.79073800000000	90.33863100000001	-14.19529700000000	0.27096300000000	0.00000000000000	0.13383300000000	-58.73876500000000	791.76034800000002	-57.83261200000000	0.05782900000000	0.00000000000000	-0.05981300000000	0.00000000000000	-6.21105400000000	0.00000000000000	0.00000000000000	-11.91881400000000	0.00000000000000	
5.59331100000000	-12.49227800000000	97.26646500000000	-14.51067600000000	0.27326300000000	0.00000000000000	0.13429300000000	-60.00728000000000	789.40522299999998	-57.45704600000000	0.05681500000000	0.00000000000000	-0.05974900000000	0.00000000000000	-6.53665600000000	0.00000000000000	0.00000000000000	-11.92408600000000	0.00000000000000	
5.59497700000000	-12.03456200000000	104.15328100000001	-14.71758800000000	0.27540700000000	0.00000000000000	0.13472800000000	-61.26982600000000	786.82357900000000	-57.04518600000000	0.05581100000000	0.00000000000000	-0.05968200000000	0.00000000000000	-6.83292200000000	0.00000000000000	0.00000000000000	-11.92869300000000	0.00000000000000	
5.59664500000000	-11.43847400000000	111.03908699999999	-14.82937900000000	0.27741300000000	0.00000000000000	0.13514200000000	-62.52378500000000	784.00959799999998	-56.59699900000000	0.05481700000000	0.00000000000000	-0.05961100000000	0.00000000000000	-7.10333500000000	0.00000000000000	0.00000000000000	-11.93241300000000	0.00000000000000	
5.59830900000000	-10.72504500000000	117.96834800000001	-14.85990700000000	0.27929800000000	0.00000000000000	0.13553600000000	-63.76645100000000	780.95767699999999	-56.11253200000000	0.05383500000000	0.00000000000000	-0.05953700000000	0.00000000000000	-7.35177600000000	0.00000000000000	0.00000000000000	-11.93501800000000	0.00000000000000	
5.59997800000000	-9.91401900000000	124.98585700000000	-14.82241700000000	0.28107300000000	0.00000000000000	0.13591300000000	-64.99503799999999	777.66245600000002	-55.59191700000000	0.05286400000000	0.00000000000000	-0.05945900000000	0.00000000000000	-7.58211500000000	0.00000000000000	0.00000000000000	-11.93626900000000	0.00000000000000	
5.60164400000000	-9.02276600000000	132.13325800000001	-14.72865200000000	0.28275100000000	0.00000000000000	0.13627400000000	-66.20668400000000	774.11884099999997	-55.03536900000000	0.05190400000000	0.00000000000000	-0.05937700000000	0.00000000000000	-7.79787300000000	0.00000000000000	0.00000000000000	-11.93592000000000	0.00000000000000	
5.60333200000000	-8.06556900000000	139.44639599999999	-14.58823200000000	0.28434100000000	0.00000000000000	0.13662200000000	-67.39845800000001	770.32202900000004	-54.44318500000000	0.05095600000000	0.00000000000000	-0.05929100000000	0.00000000000000	-8.00196400000000	0.00000000000000	0.00000000000000	-11.93371700000000	0.00000000000000	
5.60498200000000	-7.05327500000000	146.95353800000001	-14.40831800000000	0.28585000000000	0.00000000000000	0.13695700000000	-68.56737400000000	766.26753399999996	-53.81574800000000	0.05002000000000	0.00000000000000	-0.05920200000000	0.00000000000000	-8.19654000000000	0.00000000000000	0.00000000000000	-11.92940000000000	0.00000000000000	
5.60664600000000	-5.99326600000000	154.67444300000000	-14.19350400000000	0.28728600000000	0.00000000000000	0.13728100000000	-69.71039200000000	761.95121200000006	-53.15352600000000	0.04909600000000	0.00000000000000	-0.05910900000000	0.00000000000000	-8.38290900000000	0.00000000000000	0.00000000000000	-11.92270200000000	0.00000000000000	
5.60831000000000	-4.88970100000000	162.62020799999999	-13.94594000000000	0.28865400000000	0.00000000000000	0.13759400000000	-70.82443300000000	757.36928100000000	-52.45706700000000	0.04818500000000	0.00000000000000	-0.05901200000000	0.00000000000000	-8.56154500000000	0.00000000000000	0.00000000000000	-11.91335400000000	0.00000000000000	
5.60998000000000	-3.74396000000000	170.79374500000000	-13.66560400000000	0.28995900000000	0.00000000000000	0.13789800000000	-71.90638500000000	752.51834399999996	-51.72700500000000	0.04728600000000	0.00000000000000	-0.05891200000000	0.00000000000000	-8.73214700000000	0.00000000000000	0.00000000000000	-11.90108300000000	0.00000000000000	
5.61164200000000	-2.55521500000000	179.19074699999999	-13.35069900000000	0.29120600000000	0.00000000000000	0.13819300000000	-72.95311300000000	747.39541099999997	-50.96405700000000	0.04640000000000	0.00000000000000	-0.05880700000000	0.00000000000000	-8.89375600000000	0.00000000000000	0.00000000000000	-11.88561100000000	0.00000000000000	
5.61331400000000	-1.32106700000000	187.80097499999999	-12.99810800000000	0.29239800000000	0.00000000000000	0.13848100000000	-73.96147200000000	741.99791300000004	-50.16902000000000	0.04552700000000	0.00000000000000	-0.05869900000000	0.00000000000000	-9.04490000000000	0.00000000000000	0.00000000000000	-11.86666300000000	0.00000000000000	
5.61497600000000	-0.03819100000000	196.60971400000000	-12.60387000000000	0.29353800000000	0.00000000000000	0.13876000000000	-74.92831400000000	736.32372199999998	-49.34277300000000	0.04466700000000	0.00000000000000	-0.05858700000000	0.00000000000000	-9.18374600000000	0.00000000000000	0.00000000000000	-11.84396100000000	0.00000000000000	
5.61664800000000	1.29706700000000	205.59926200000001	-12.16363300000000	0.29462800000000	0.00000000000000	0.13903300000000	-75.85050000000000	730.37115900000003	-48.48627600000000	0.04382100000000	0.00000000000000	-0.05847100000000	0.00000000000000	-9.30826100000000	0.00000000000000	0.00000000000000	-11.81723100000000	0.00000000000000	
5.61830800000000	2.68817100000000	214.75032100000001	-11.67306400000000	0.29567100000000	0.00000000000000	0.13929900000000	-76.72491500000000	724.13901099999998	-47.60056600000000	0.04298900000000	0.00000000000000	-0.05835100000000	0.00000000000000	-9.41635600000000	0.00000000000000	0.00000000000000	-11.78620100000000	0.00000000000000	
5.61998000000000	4.13797700000000	224.04323199999999	-11.12818100000000	0.29666800000000	0.00000000000000	0.13955800000000	-77.54847400000000	717.62653899999998	-46.68676000000000	0.04217000000000	0.00000000000000	-0.05822700000000	0.00000000000000	-9.50601500000000	0.00000000000000	0.00000000000000	-11.75060100000000	0.00000000000000	
5.62164600000000	5.64843800000000	233.45897500000001	-10.52561100000000	0.29762000000000	0.00000000000000	0.13981200000000	-78.31813900000000	710.83348599999999	-45.74604900000000	0.04136600000000	0.00000000000000	-0.05809900000000	0.00000000000000	-9.57539100000000	0.00000000000000	0.00000000000000	-11.71017100000000	0.00000000000000	
5.62330700000000	7.22040700000000	242.97990799999999	-9.86276000000000	0.29852900000000	0.00000000000000	0.14006100000000	-79.03093100000000	703.76008800000000	-44.77970000000000	0.04057500000000	0.00000000000000	-0.05796700000000	0.00000000000000	-9.62288200000000	0.00000000000000	0.00000000000000	-11.66465400000000	0.00000000000000	
5.62498100000000	8.85356700000000	252.59025900000000	-9.13790700000000	0.29939500000000	0.00000000000000	0.14030400000000	-79.68394200000000	696.40708099999995	-43.78905400000000	0.03979900000000	0.00000000000000	-0.05783100000000	0.00000000000000	-9.64717400000000	0.00000000000000	0.00000000000000	-11.61380600000000	0.00000000000000	
5.62664200000000	10.54643500000000	262.27636500000000	-8.35022100000000	0.30021800000000	0.00000000000000	0.14054200000000	-80.27435199999999	688.77571399999999	-42.77551900000000	0.03903600000000	0.00000000000000	-0.05769200000000	0.00000000000000	-9.64726400000000	0.00000000000000	0.00000000000000	-11.55738900000000	0.00000000000000	
5.62831100000000	12.29645100000000	272.02670899999998	-7.49972500000000	0.30099900000000	0.00000000000000	0.14077500000000	-80.79943900000001	680.86775799999998	-41.74057300000000	0.03828900000000	0.00000000000000	-0.05754800000000	0.00000000000000	-9.62245800000000	0.00000000000000	0.00000000000000	-11.49517900000000	0.00000000000000	
5.62997400000000	14.10012000000000	281.83177499999999	-6.58721400000000	0.30173900000000	0.00000000000000	0.14100300000000	-81.25659600000000	672.68552599999998	-40.68575500000000	0.03755500000000	0.00000000000000	-0.05739900000000	0.00000000000000	-9.57234900000000	0.00000000000000	0.00000000000000	-11.42696600000000	0.00000000000000	
5.63164700000000	15.95317500000000	291.68379800000002	-5.61414300000000	0.30243700000000	0.00000000000000	0.14122700000000	-81.64334599999999	664.23188800000003	-39.61266600000000	0.03683600000000	0.00000000000000	-0.05724700000000	0.00000000000000	-9.49679100000000	0.00000000000000	0.00000000000000	-11.35255400000000	0.00000000000000	
5.63330800000000	17.85077300000000	301.57641500000000	-4.58249900000000	0.30309200000000	0.00000000000000	0.14144700000000	-81.95735400000000	655.51029500000004	-38.52295900000000	0.03613200000000	0.00000000000000	-0.05709100000000	0.00000000000000	-9.39585800000000	0.00000000000000	0.00000000000000	-11.27176200000000	0.00000000000000	
5.63497900000000	19.78767500000000	311.50430100000000	-3.49467400000000	0.30370600000000	0.00000000000000	0.14166200000000	-82.19644200000000	646.52480500000001	-37.41833400000000	0.03544200000000	0.00000000000000	-0.05693000000000	0.00000000000000	-9.26980200000000	0.00000000000000	0.00000000000000	-11.18442900000000	0.00000000000000	
5.63664000000000	21.75841600000000	321.46279500000003	-2.35333700000000	0.30427600000000	0.00000000000000	0.14187300000000	-82.35860599999999	637.28011000000004	-36.30053400000000	0.03476600000000	0.00000000000000	-0.05676600000000	0.00000000000000	-9.11901600000000	0.00000000000000	0.00000000000000	-11.09041100000000	0.00000000000000	
